Coordinates
version=1
nRows=19
nColumns=33
inDegrees=yes

Units are S.I. units (second, meters, Newtons, ...)
Angles are in degrees.

endheader
time	ground_thorax_rot_x	ground_thorax_rot_y	ground_thorax_rot_z	ground_thorax_tx	ground_thorax_ty	ground_thorax_tz	clav_prot_r	clav_elev_r	scapula_abduction_r	scapula_elevation_r	scapula_upward_rot_r	scapula_winging_r	shoulder_elv_r	plane_of_elev_r	axial_rot_r	elbow_flexion_r	pro_sup_r	wrist_flex_r	wrist_dev_r	clav_prot_l	clav_elev_l	scapula_abduction_l	scapula_elevation_l	scapula_upward_rot_l	scapula_winging_l	shoulder_elv_l	plane_of_elev_l	axial_rot_l	elbow_flexion_l	pro_sup_l	wrist_flex_l	wrist_dev_l
     13.14000000	    -90.00000000	     90.00000000	    -90.00000000	     35.18420642	    781.46070987	    -35.55853536	     26.23038993	     37.43320874	     45.00000000	     45.00000000	     10.73557824	   2485.87024694	    467.86755534	     31.24280322	    -51.03371510	   1439.96625496	    177.09268012	     11.04525618	     13.15670178	    -45.00000000	     32.05491480	     42.36769974	    -23.52827346	     45.00000000	   3349.03525479	  -5283.03070471	     22.42880700	    179.99999979	   1796.62521146	     46.04562718	     16.78604368	    -19.82852461
     13.15000000	    -90.00000000	     90.00000000	    -90.00000000	     36.86682316	    779.84562419	    -35.45156745	     26.12267364	     37.47490017	     45.00000000	     45.00000000	     10.68513685	   2485.57202746	    467.88647911	     31.35349785	    -50.74504321	   1440.04655458	    177.14793215	     10.99715279	     13.08831850	    -45.00000000	     32.35381062	     42.42160986	    -23.79287041	     45.00000000	   3349.15319686	  -5283.04842964	     22.41641733	    179.99999979	   1796.53316219	     45.97389687	     16.75817965	    -19.70138966
     13.16000000	    -90.00000000	     90.00000000	    -90.00000000	     38.52505839	    778.25467473	    -35.35101470	     26.01543344	     37.51636714	     45.00000000	     45.00000000	     10.63701972	   2485.27370268	    467.90647361	     31.47226286	    -50.43183088	   1440.12580590	    177.14114250	     10.94803586	     13.02207176	    -45.00000000	     32.73804026	     42.47533678	    -24.07989523	     45.00000000	   3349.28847227	  -5283.08986316	     22.40795590	    179.99999979	   1796.43047899	     45.89023912	     16.71919196	    -19.56502858
     13.17000000	    -90.00000000	     90.00000000	    -90.00000000	     40.15508283	    776.69256474	    -35.25608386	     25.90875207	     37.56005802	     45.00000000	     45.00000000	     10.58961642	   2485.00529834	    467.93520105	     31.57181842	    -50.08285735	   1440.21069884	    177.07117718	     10.89386694	     12.96828235	    -45.00000000	     33.09871041	     42.53369720	    -24.34086785	     45.00000000	   3349.39087161	  -5283.12151384	     22.40295802	    179.99999979	   1796.32906581	     45.79062802	     16.70733292	    -19.45369249
     13.18000000	    -90.00000000	     90.00000000	    -90.00000000	     41.75135709	    775.16477003	    -35.16604779	     25.80208087	     37.59436038	     45.00000000	     45.00000000	     10.53648565	   2484.68902457	    467.96710543	     31.72715535	    -49.72059631	   1440.27446452	    176.93624833	     10.84821369	     12.89685094	    -45.00000000	     33.42257269	     42.57103291	    -24.64648515	     45.00000000	   3349.57203638	  -5283.17486931	     22.42197222	    179.99999979	   1796.21999060	     45.68423034	     16.62894369	    -19.28425902
     13.19000000	    -90.00000000	     90.00000000	    -90.00000000	     43.30705230	    773.67702365	    -35.07993274	     25.69668201	     37.63708573	     45.00000000	     45.00000000	     10.50818496	   2484.44100412	    467.99969019	     31.81786331	    -49.33070257	   1440.34195803	    176.73269187	     10.79777629	     12.85107354	    -45.00000000	     33.81471587	     42.63075277	    -24.90796197	     45.00000000	   3349.65537234	  -5283.20625976	     22.38047593	    179.99999979	   1796.09390058	     45.56169159	     16.63791926	    -19.18004530
     13.20000000	    -90.00000000	     90.00000000	    -90.00000000	     44.81706440	    772.23276475	    -34.99647630	     25.59200923	     37.67791945	     45.00000000	     45.00000000	     10.45957028	   2484.17994521	    468.03224585	     31.94774090	    -48.92410113	   1440.41419066	    176.46115726	     10.74153581	     12.80778417	    -45.00000000	     34.15387019	     42.67719808	    -25.16495880	     45.00000000	   3349.74568335	  -5283.24778179	     22.38014790	    179.99999979	   1795.97425644	     45.42159865	     16.60544769	    -19.04761885
     13.21000000	    -90.00000000	     90.00000000	    -90.00000000	     46.26983690	    770.84061419	    -34.91420902	     25.48870237	     37.71526637	     45.00000000	     45.00000000	     10.42370321	   2483.92034447	    468.06789353	     32.07221981	    -48.50659980	   1440.48414816	    176.12986286	     10.68912499	     12.76214095	    -45.00000000	     34.51972808	     42.70644579	    -25.45932325	     45.00000000	   3349.93390169	  -5283.32143427	     22.43616746	    179.99999979	   1795.85868977	     45.26675737	     16.57105210	    -18.91503514
     13.22000000	    -90.00000000	     90.00000000	    -90.00000000	     47.65813822	    769.50431065	    -34.83063931	     25.38802421	     37.74980956	     45.00000000	     45.00000000	     10.39177296	   2483.65521393	    468.10691994	     32.20832321	    -48.08343013	   1440.54769479	    175.74961184	     10.64132419	     12.71707061	    -45.00000000	     34.83235626	     42.74114440	    -25.72640116	     45.00000000	   3350.04865637	  -5283.37148640	     22.42610392	    179.99999979	   1795.73620851	     45.09994779	     16.53364860	    -18.77773570
     13.23000000	    -90.00000000	     90.00000000	    -90.00000000	     48.97562046	    768.22632460	    -34.74244235	     25.29017251	     37.78688067	     45.00000000	     45.00000000	     10.36911867	   2483.42967342	    468.14030143	     32.32122916	    -47.65707693	   1440.61888053	    175.32213685	     10.58861049	     12.68310462	    -45.00000000	     35.16366999	     42.76565543	    -25.97591095	     45.00000000	   3350.15172866	  -5283.41587223	     22.42473359	    179.99999979	   1795.60081619	     44.91306442	     16.53101605	    -18.66421835
     13.24000000	    -90.00000000	     90.00000000	    -90.00000000	     50.21455755	    767.01042635	    -34.64614954	     25.19599877	     37.82184532	     45.00000000	     45.00000000	     10.35139240	   2483.20843171	    468.17515621	     32.43783205	    -47.23263925	   1440.68539713	    174.85810809	     10.53749799	     12.65398362	    -45.00000000	     35.47888707	     42.78891411	    -26.22630810	     45.00000000	   3350.28129492	  -5283.47598241	     22.45868839	    179.99999979	   1795.47903879	     44.70205890	     16.51074364	    -18.55026935
     13.25000000	    -90.00000000	     90.00000000	    -90.00000000	     51.36842720	    765.85862985	    -34.53874747	     25.10603321	     37.85687891	     45.00000000	     45.00000000	     10.34640751	   2483.01609706	    468.20644187	     32.53457904	    -46.81168412	   1440.75204088	    174.36465444	     10.48445482	     12.63085586	    -45.00000000	     35.78639175	     42.81786837	    -26.44266323	     45.00000000	   3350.36208691	  -5283.51936707	     22.47016595	    179.99999979	   1795.34998755	     44.47149244	     16.51333914	    -18.45505905
     13.26000000	    -90.00000000	     90.00000000	    -90.00000000	     52.42973016	    764.77405418	    -34.41867396	     25.02101641	     37.88607503	     45.00000000	     45.00000000	     10.36193348	   2482.82587180	    468.23503032	     32.63812787	    -46.41536281	   1440.79129401	    173.86308830	     10.44452715	     12.60922453	    -45.00000000	     36.05430051	     42.84761663	    -26.65831099	     45.00000000	   3350.46086470	  -5283.58179908	     22.50769787	    179.99999979	   1795.21842858	     44.22769079	     16.49038465	    -18.35479354
     13.27000000	    -90.00000000	     90.00000000	    -90.00000000	     53.39457106	    763.75679338	    -34.28627492	     24.94268583	     37.91280288	     45.00000000	     45.00000000	     10.33216849	   2482.65395618	    468.24237041	     32.73529563	    -46.00725294	   1440.85774548	    173.37037878	     10.39813033	     12.58020033	    -45.00000000	     36.32533070	     42.85027808	    -26.88328480	     45.00000000	   3350.55571165	  -5283.62075717	     22.51567211	    179.99999979	   1795.10807415	     43.97426742	     16.46846412	    -18.27708901
     13.28000000	    -90.00000000	     90.00000000	    -90.00000000	     54.25405965	    762.81342326	    -34.14549175	     24.87805448	     37.91859787	     45.00000000	     45.00000000	     10.47243644	   2482.44837672	    468.29478667	     32.87356100	    -45.68236760	   1440.78295686	    172.90812715	     10.43513315	     12.52291845	    -45.00000000	     36.70474635	     42.61107770	    -27.11754072	     45.00000000	   3350.79807540	  -5283.44335147	     22.42990836	    179.99999979	   1794.89507851	     43.75302360	     16.45467940	    -18.20321393
     13.29000000	    -90.00000000	     90.00000000	    -90.00000000	     55.00866613	    761.94245260	    -34.00195802	     24.80152826	     37.94642195	     45.00000000	     45.00000000	     10.38354539	   2482.39951040	    468.32237225	     32.89033906	    -45.27202914	   1440.97285307	    172.49791417	     10.31563247	     12.55407814	    -45.00000000	     36.69599557	     42.96018363	    -27.15291531	     45.00000000	   3350.50454572	  -5283.70876280	     22.50681279	    179.99999979	   1794.86026580	     43.50514450	     16.41364520	    -18.17215985
     13.30000000	    -90.00000000	     90.00000000	    -90.00000000	     55.65366750	    761.14860935	    -33.86252472	     24.77009728	     37.94848086	     45.00000000	     45.00000000	     10.47804302	   2482.20680407	    468.32569049	     33.04743708	    -44.99084521	   1440.92355333	    172.06867571	     10.35592166	     12.46491434	    -45.00000000	     37.27622265	     42.55757076	    -27.58180974	     45.00000000	   3351.10248739	  -5283.61994019	     22.53407813	    179.99999979	   1794.54858968	     43.31362251	     16.37110466	    -18.07489694
     13.31000000	    -90.00000000	     90.00000000	    -90.00000000	     56.19135110	    760.42958470	    -33.73271660	     24.70734797	     37.96811870	     45.00000000	     45.00000000	     10.41158029	   2482.23724022	    468.36394467	     32.96988157	    -44.60737684	   1441.05534620	    171.64788089	     10.22559138	     12.54285834	    -45.00000000	     37.18362497	     42.81997145	    -27.56579287	     45.00000000	   3350.75040530	  -5283.77606390	     22.55047947	    179.99999979	   1794.62894932	     43.06274883	     16.38415934	    -18.10530916
     13.32000000	    -90.00000000	     90.00000000	    -90.00000000	     56.62033438	    759.78564272	    -33.61656547	     24.69700488	     37.93983321	     45.00000000	     45.00000000	     10.43765438	   2481.99378099	    468.41406122	     33.20711689	    -44.32055809	   1441.02362714	    171.28810988	     10.30032432	     12.44887756	    -45.00000000	     37.59263339	     42.79898931	    -27.91904268	     45.00000000	   3351.12501185	  -5284.06145634	     22.69526534	    179.99999979	   1794.31988702	     42.89782672	     16.08778496	    -17.96618695
